<mxfile host="app.diagrams.net" modified="2023-12-20T17:51:17.634Z" agent="Mozilla/5.0 (Windows NT 10.0; Win64; x64) AppleWebKit/537.36 (KHTML, like Gecko) Chrome/120.0.0.0 Safari/537.36" etag="5bEdNhsokYleiONotRzu" version="22.1.11" type="google">
  <diagram name="第 1 页" id="nBcg90Kra6o0pqTtXCJ1">
    <mxGraphModel grid="1" page="1" gridSize="10" guides="1" tooltips="1" connect="1" arrows="1" fold="1" pageScale="1" pageWidth="827" pageHeight="1169" math="0" shadow="0">
      <root>
        <mxCell id="0" />
        <mxCell id="1" parent="0" />
        <mxCell id="qus1_pxT7iYyDbfCWf6Y-1" value="管理人員" style="shape=umlActor;verticalLabelPosition=bottom;verticalAlign=top;html=1;fillStyle=auto;gradientColor=none;fillColor=default;" vertex="1" parent="1">
          <mxGeometry x="120" y="200" width="30" height="60" as="geometry" />
        </mxCell>
        <mxCell id="qus1_pxT7iYyDbfCWf6Y-6" value="個人中心" style="rounded=1;whiteSpace=wrap;html=1;" vertex="1" parent="1">
          <mxGeometry x="250" y="90" width="140" height="30" as="geometry" />
        </mxCell>
        <mxCell id="qus1_pxT7iYyDbfCWf6Y-7" value="系統首頁" style="rounded=1;whiteSpace=wrap;html=1;" vertex="1" parent="1">
          <mxGeometry x="250" y="40" width="140" height="30" as="geometry" />
        </mxCell>
        <mxCell id="qus1_pxT7iYyDbfCWf6Y-8" value="用戶管理" style="rounded=1;whiteSpace=wrap;html=1;" vertex="1" parent="1">
          <mxGeometry x="250" y="140" width="140" height="30" as="geometry" />
        </mxCell>
        <mxCell id="qus1_pxT7iYyDbfCWf6Y-9" value="商家管理" style="rounded=1;whiteSpace=wrap;html=1;" vertex="1" parent="1">
          <mxGeometry x="250" y="185" width="140" height="30" as="geometry" />
        </mxCell>
        <mxCell id="qus1_pxT7iYyDbfCWf6Y-10" value="商品分類管理" style="rounded=1;whiteSpace=wrap;html=1;" vertex="1" parent="1">
          <mxGeometry x="250" y="230" width="140" height="30" as="geometry" />
        </mxCell>
        <mxCell id="qus1_pxT7iYyDbfCWf6Y-11" value="美食信息管理" style="rounded=1;whiteSpace=wrap;html=1;" vertex="1" parent="1">
          <mxGeometry x="250" y="280" width="140" height="30" as="geometry" />
        </mxCell>
        <mxCell id="qus1_pxT7iYyDbfCWf6Y-12" value="系統管理" style="rounded=1;whiteSpace=wrap;html=1;" vertex="1" parent="1">
          <mxGeometry x="250" y="330" width="140" height="30" as="geometry" />
        </mxCell>
        <mxCell id="qus1_pxT7iYyDbfCWf6Y-13" value="訂單管理" style="rounded=1;whiteSpace=wrap;html=1;" vertex="1" parent="1">
          <mxGeometry x="250" y="380" width="140" height="30" as="geometry" />
        </mxCell>
        <mxCell id="qus1_pxT7iYyDbfCWf6Y-16" value="" style="endArrow=none;html=1;rounded=0;entryX=0;entryY=0.5;entryDx=0;entryDy=0;" edge="1" parent="1" target="qus1_pxT7iYyDbfCWf6Y-9">
          <mxGeometry width="50" height="50" relative="1" as="geometry">
            <mxPoint x="140" y="230" as="sourcePoint" />
            <mxPoint x="310" y="200" as="targetPoint" />
          </mxGeometry>
        </mxCell>
        <mxCell id="qus1_pxT7iYyDbfCWf6Y-17" value="" style="endArrow=none;html=1;rounded=0;entryX=0;entryY=0.5;entryDx=0;entryDy=0;" edge="1" parent="1" target="qus1_pxT7iYyDbfCWf6Y-10">
          <mxGeometry width="50" height="50" relative="1" as="geometry">
            <mxPoint x="140" y="230" as="sourcePoint" />
            <mxPoint x="260" y="210" as="targetPoint" />
          </mxGeometry>
        </mxCell>
        <mxCell id="qus1_pxT7iYyDbfCWf6Y-18" value="" style="endArrow=none;html=1;rounded=0;entryX=0;entryY=0.5;entryDx=0;entryDy=0;" edge="1" parent="1" target="qus1_pxT7iYyDbfCWf6Y-11">
          <mxGeometry width="50" height="50" relative="1" as="geometry">
            <mxPoint x="140" y="230" as="sourcePoint" />
            <mxPoint x="270" y="220" as="targetPoint" />
          </mxGeometry>
        </mxCell>
        <mxCell id="qus1_pxT7iYyDbfCWf6Y-19" value="" style="endArrow=none;html=1;rounded=0;entryX=0;entryY=0.5;entryDx=0;entryDy=0;" edge="1" parent="1" target="qus1_pxT7iYyDbfCWf6Y-12">
          <mxGeometry width="50" height="50" relative="1" as="geometry">
            <mxPoint x="140" y="230" as="sourcePoint" />
            <mxPoint x="260" y="305" as="targetPoint" />
          </mxGeometry>
        </mxCell>
        <mxCell id="qus1_pxT7iYyDbfCWf6Y-21" value="" style="endArrow=none;html=1;rounded=0;entryX=0;entryY=0.5;entryDx=0;entryDy=0;" edge="1" parent="1" target="qus1_pxT7iYyDbfCWf6Y-13">
          <mxGeometry width="50" height="50" relative="1" as="geometry">
            <mxPoint x="140" y="230" as="sourcePoint" />
            <mxPoint x="270" y="365" as="targetPoint" />
          </mxGeometry>
        </mxCell>
        <mxCell id="qus1_pxT7iYyDbfCWf6Y-22" value="" style="endArrow=none;html=1;rounded=0;" edge="1" parent="1">
          <mxGeometry width="50" height="50" relative="1" as="geometry">
            <mxPoint x="140" y="230" as="sourcePoint" />
            <mxPoint x="250" y="160" as="targetPoint" />
          </mxGeometry>
        </mxCell>
        <mxCell id="qus1_pxT7iYyDbfCWf6Y-23" value="" style="endArrow=none;html=1;rounded=0;entryX=0;entryY=0.5;entryDx=0;entryDy=0;" edge="1" parent="1" target="qus1_pxT7iYyDbfCWf6Y-6">
          <mxGeometry width="50" height="50" relative="1" as="geometry">
            <mxPoint x="140" y="230" as="sourcePoint" />
            <mxPoint x="260" y="173" as="targetPoint" />
          </mxGeometry>
        </mxCell>
        <mxCell id="qus1_pxT7iYyDbfCWf6Y-24" value="" style="endArrow=none;html=1;rounded=0;entryX=0;entryY=0.5;entryDx=0;entryDy=0;" edge="1" parent="1" target="qus1_pxT7iYyDbfCWf6Y-7">
          <mxGeometry width="50" height="50" relative="1" as="geometry">
            <mxPoint x="140" y="230" as="sourcePoint" />
            <mxPoint x="260" y="115" as="targetPoint" />
          </mxGeometry>
        </mxCell>
      </root>
    </mxGraphModel>
  </diagram>
</mxfile>
